<?xml version="1.0" encoding="utf-8"?>
<!-- Generator: Adobe Illustrator 18.0.0, SVG Export Plug-In . SVG Version: 6.00 Build 0)  -->
<!DOCTYPE svg PUBLIC "-//W3C//DTD SVG 1.1//EN" "http://www.w3.org/Graphics/SVG/1.1/DTD/svg11.dtd">
<svg version="1.1" id="Layer_1" xmlns="http://www.w3.org/2000/svg" xmlns:xlink="http://www.w3.org/1999/xlink" x="0px" y="0px"
	 viewBox="0 0 349.3 121.9" enable-background="new 0 0 349.3 121.9" xml:space="preserve">
<g>
	<g>
		<path fill="#47494A" d="M128.1,55.2c-2.7,0-5-1.8-5-4V12c0-2.2,2.3-4,5-4c2.7,0,5,1.8,5,4v39.1C133.1,53.4,130.9,55.2,128.1,55.2z
			"/>
	</g>
	<g>
		<path fill="#47494A" d="M334.1,55.2c-2.7,0-5-1.8-5-4V12c0-2.2,2.3-4,5-4s5,1.8,5,4v39.1C339.1,53.4,336.9,55.2,334.1,55.2z"/>
	</g>
	<g>
		<path fill="#47494A" d="M263.1,78.8c-2.7,0-5-1.8-5-4V12c0-2.2,2.3-4,5-4s5,1.8,5,4v62.8C268.1,77,265.9,78.8,263.1,78.8z"/>
	</g>
	<g>
		<path fill="#47494A" d="M152.9,78.4c-16.2,0-29.3-13.1-29.3-29.3c0-16.2,13.1-29.3,29.3-29.3c16.2,0,29.3,13.1,29.3,29.3
			C182.2,65.2,169,78.4,152.9,78.4z M152.9,29.7c-10.7,0-19.4,8.7-19.4,19.4c0,10.7,8.7,19.4,19.4,19.4c10.7,0,19.4-8.7,19.4-19.4
			C172.3,38.4,163.6,29.7,152.9,29.7z"/>
	</g>
	<g>
		<path fill="#47494A" d="M309.8,78.4c-16.2,0-29.3-13.1-29.3-29.3c0-16.2,13.1-29.3,29.3-29.3c16.2,0,29.3,13.1,29.3,29.3
			C339.2,65.2,326,78.4,309.8,78.4z M309.8,29.7c-10.7,0-19.4,8.7-19.4,19.4c0,10.7,8.7,19.4,19.4,19.4c10.7,0,19.4-8.7,19.4-19.4
			C329.2,38.4,320.5,29.7,309.8,29.7z"/>
	</g>
	<g>
		<path fill="#47494A" d="M220.4,78.4c-16.2,0-29.3-13.1-29.3-29.3c0-16.2,13.1-29.3,29.3-29.3c16.2,0,29.3,13.1,29.3,29.3
			C249.7,65.2,236.6,78.4,220.4,78.4z M220.4,29.7c-10.7,0-19.4,8.7-19.4,19.4c0,10.7,8.7,19.4,19.4,19.4c10.7,0,19.4-8.7,19.4-19.4
			C239.8,38.4,231.1,29.7,220.4,29.7z"/>
	</g>
	<g>
		<path fill="#E72852" d="M88.7,20.8H62.1c-2.6,0-4.7-1.9-4.7-4.5c0-2.6,2.1-4.5,4.7-4.5h26.6c2.6,0,4.7,1.9,4.7,4.5
			C93.4,18.9,91.3,20.8,88.7,20.8z"/>
	</g>
	<g>
		<path fill="#F7B22D" d="M90.5,41.8H14.8c-2.6,0-4.7-1.9-4.7-4.5c0-2.6,2.1-4.5,4.7-4.5h75.6c2.6,0,4.7,1.9,4.7,4.5
			C95.2,39.9,93.1,41.8,90.5,41.8z"/>
	</g>
	<g>
		<path fill="#96C23C" d="M68,61.8H39.1c-2.6,0-4.7-2.4-4.7-5c0-2.6,2.1-5,4.7-5H68c2.6,0,4.7,2.4,4.7,5
			C72.7,59.4,70.6,61.8,68,61.8z"/>
	</g>
	<g>
		<path fill="#52BCB6" d="M90.5,79.8H66.2c-2.6,0-4.7-2.4-4.7-5c0-2.6,2.1-5,4.7-5h24.2c2.6,0,4.7,2.4,4.7,5
			C95.2,77.4,93.1,79.8,90.5,79.8z"/>
	</g>
	<g>
		<path fill="#9D9D9C" d="M135.3,94.8c0.3,0,0.6,0.1,0.9,0.3c0.3,0.2,0.4,0.4,0.5,0.7l4.5,14.8l4.5-14.8c0.2-0.6,0.6-1,1.2-1
			c0.4,0,0.6,0.1,0.9,0.3c0.2,0.2,0.3,0.4,0.3,0.7c0,0.2,0,0.5-0.1,0.7l-5.3,16.1c-0.3,0.8-0.8,1.2-1.6,1.2c-0.4,0-0.7-0.1-1-0.3
			c-0.3-0.2-0.5-0.5-0.6-0.9l-4.3-13.7l-4.3,13.7c-0.1,0.4-0.3,0.6-0.6,0.9s-0.6,0.3-1,0.3c-0.8,0-1.3-0.4-1.6-1.2l-5.3-16.1
			c-0.1-0.2-0.1-0.4-0.1-0.7c0-0.2,0.1-0.5,0.3-0.7c0.2-0.2,0.5-0.3,0.8-0.3c0.6,0,1.1,0.3,1.3,1l4.5,14.8l4.5-14.8
			c0.1-0.3,0.3-0.5,0.5-0.7C134.7,94.9,135,94.8,135.3,94.8z"/>
		<path fill="#9D9D9C" d="M159.7,94.7c2.8,0,5.1,0.9,6.8,2.7c1.7,1.8,2.5,4.1,2.6,6.9c-0.1,2.8-0.9,5.1-2.6,6.9
			c-1.7,1.8-4,2.7-6.8,2.7c-2.8,0-5.1-0.9-6.8-2.7c-1.7-1.8-2.6-4.1-2.6-6.9c0-2.8,0.9-5.1,2.6-6.9
			C154.6,95.6,156.8,94.7,159.7,94.7z M159.7,111.6c2.2,0,3.9-0.7,5.1-2.1c1.2-1.4,1.8-3.1,1.8-5.2s-0.6-3.9-1.8-5.2
			c-1.3-1.4-3-2.1-5.1-2.1c-2.2,0-3.9,0.7-5.1,2.1c-1.2,1.4-1.8,3.1-1.8,5.2s0.6,3.9,1.8,5.2C155.8,110.9,157.5,111.6,159.7,111.6z"
			/>
		<path fill="#9D9D9C" d="M187.7,112.6c0,0.3-0.1,0.6-0.3,0.9c-0.2,0.2-0.5,0.3-0.9,0.3c-0.4,0-0.6-0.1-0.9-0.3s-0.3-0.5-0.3-0.9
			v-0.8c0-1.4-0.2-2.5-0.5-3.2s-0.8-1.2-1.3-1.6c-0.6-0.4-1.3-0.6-2.4-0.6h-5.6v6.2c0,0.3-0.1,0.6-0.4,0.9c-0.2,0.2-0.5,0.3-0.9,0.3
			c-0.3,0-0.6-0.1-0.9-0.3c-0.2-0.2-0.3-0.5-0.3-0.9V96.2c0-0.3,0.1-0.6,0.3-0.9s0.5-0.4,0.9-0.4h6.2c2.4,0,4.3,0.5,5.6,1.6
			c1.2,1,1.7,2.3,1.7,3.9c0,1-0.3,2-0.9,2.9c-0.6,0.9-1.5,1.5-2.6,2c1.3,0.3,2.2,1.3,2.8,2.8c0.4,1,0.6,2.1,0.6,3.3V112.6z
			 M180.4,104.1c1.5,0,2.7-0.3,3.6-0.9s1.4-1.5,1.4-2.6c0-1.1-0.4-1.9-1.1-2.4c-0.9-0.6-2.2-0.9-4.1-0.9h-4.7v6.8H180.4z"/>
		<path fill="#9D9D9C" d="M206.5,111.8c0.2,0.3,0.3,0.5,0.3,0.8s-0.1,0.6-0.3,0.8s-0.5,0.3-0.9,0.3c-0.4,0-0.7-0.2-0.9-0.5l-6.9-8.8
			l-3.1,3.1v5c0,0.3-0.1,0.6-0.4,0.9c-0.2,0.2-0.5,0.3-0.9,0.3c-0.3,0-0.6-0.1-0.9-0.3c-0.2-0.2-0.3-0.5-0.3-0.9V96
			c0-0.3,0.1-0.6,0.3-0.9s0.5-0.4,0.9-0.4c0.3,0,0.6,0.1,0.9,0.4c0.2,0.2,0.4,0.5,0.4,0.9v8.5l9.2-9.3c0.2-0.3,0.5-0.4,0.9-0.4
			s0.6,0.1,0.8,0.3c0.2,0.2,0.3,0.5,0.3,0.8s-0.1,0.6-0.3,0.8l-6.2,6.2L206.5,111.8z"/>
		<path fill="#47494A" d="M217.5,94.9c2.5,0,4.4,0.6,5.6,1.9c1,1,1.6,2.4,1.6,4c0,1.6-0.5,3-1.6,4c-1.3,1.3-3.1,1.9-5.6,1.9h-4.9
			v5.7c0,0.3-0.1,0.6-0.4,0.9c-0.2,0.2-0.5,0.3-0.9,0.3s-0.6-0.1-0.9-0.3c-0.2-0.2-0.3-0.5-0.3-0.9V96.2c0-0.3,0.1-0.6,0.3-0.9
			s0.5-0.4,0.9-0.4H217.5z M217.3,104.5c1.8,0,3.2-0.4,4-1.2c0.6-0.6,1-1.4,1-2.5c0-1.7-0.8-2.8-2.5-3.3c-0.6-0.2-1.5-0.3-2.5-0.3
			h-4.6v7.3H217.3z"/>
		<path fill="#47494A" d="M240.2,111.6c0.2,0.2,0.4,0.5,0.4,0.9s-0.1,0.6-0.4,0.9c-0.2,0.2-0.5,0.3-0.9,0.3h-9.5
			c-0.5,0-0.9-0.2-1.2-0.5s-0.5-0.7-0.5-1.2V96c0-0.3,0.1-0.6,0.3-0.9s0.5-0.4,0.9-0.4s0.6,0.1,0.9,0.4s0.4,0.5,0.4,0.9v15.2h8.8
			C239.7,111.2,240,111.3,240.2,111.6z"/>
		<path fill="#47494A" d="M258.9,112.1c0.1,0.2,0.1,0.4,0.1,0.7c0,0.2-0.1,0.5-0.3,0.7c-0.2,0.2-0.6,0.3-1,0.3s-0.8-0.2-1-0.8
			l-1.7-4.2h-9.1L244,113c-0.2,0.5-0.6,0.8-1,0.8s-0.8-0.1-1-0.3c-0.2-0.2-0.3-0.5-0.3-0.7c0-0.2,0-0.5,0.1-0.7l6.8-16.1
			c0.3-0.7,0.8-1.1,1.6-1.1h0.3c0.7,0,1.2,0.4,1.6,1.1L258.9,112.1z M254,106.6l-3.6-8.7l-3.6,8.7H254z"/>
		<path fill="#47494A" d="M277.4,94.8c0.3,0,0.6,0.1,0.9,0.4s0.4,0.5,0.4,0.9v16c0,0.5-0.2,0.9-0.5,1.2c-0.3,0.3-0.8,0.5-1.2,0.5
			h-0.3c-0.6,0-1.1-0.2-1.4-0.7l-10.4-15v14.5c0,0.3-0.1,0.6-0.4,0.9c-0.2,0.2-0.5,0.3-0.9,0.3s-0.6-0.1-0.9-0.3
			c-0.2-0.2-0.3-0.5-0.3-0.9v-16c0-0.5,0.2-0.9,0.5-1.2s0.8-0.5,1.2-0.5h0.3c0.6,0,1,0.3,1.5,0.8l10.3,14.9V96
			c0-0.3,0.1-0.6,0.3-0.9S277,94.8,277.4,94.8z"/>
		<path fill="#47494A" d="M298.9,94.8c0.3,0,0.6,0.1,0.9,0.4s0.4,0.5,0.4,0.9v16c0,0.5-0.2,0.9-0.5,1.2c-0.3,0.3-0.8,0.5-1.2,0.5
			h-0.3c-0.6,0-1.1-0.2-1.4-0.7l-10.4-15v14.5c0,0.3-0.1,0.6-0.4,0.9c-0.2,0.2-0.5,0.3-0.9,0.3c-0.3,0-0.6-0.1-0.9-0.3
			c-0.2-0.2-0.3-0.5-0.3-0.9v-16c0-0.5,0.2-0.9,0.5-1.2c0.3-0.3,0.8-0.5,1.2-0.5h0.3c0.6,0,1,0.3,1.5,0.8l10.3,14.9V96
			c0-0.3,0.1-0.6,0.3-0.9C298.3,94.9,298.6,94.8,298.9,94.8z"/>
		<path fill="#47494A" d="M318.1,111.7c0.2,0.2,0.3,0.5,0.3,0.8c0,0.3-0.1,0.6-0.3,0.8c-0.2,0.2-0.5,0.3-0.8,0.3h-10.8
			c-0.3,0-0.6-0.1-0.9-0.3s-0.3-0.5-0.3-0.9V96.2c0-0.3,0.1-0.6,0.3-0.9s0.5-0.4,0.9-0.4h10.8c0.3,0,0.6,0.1,0.8,0.3
			s0.3,0.5,0.3,0.8c0,0.3-0.1,0.6-0.3,0.8c-0.2,0.2-0.5,0.3-0.8,0.3h-9.5v5.9h8.6c0.3,0,0.6,0.1,0.8,0.3s0.3,0.5,0.3,0.8
			c0,0.3-0.1,0.6-0.3,0.8c-0.2,0.2-0.5,0.3-0.8,0.3h-8.6v6h9.5C317.6,111.4,317.9,111.5,318.1,111.7z"/>
		<path fill="#47494A" d="M337.1,112.6c0,0.3-0.1,0.6-0.3,0.9c-0.2,0.2-0.5,0.3-0.9,0.3s-0.6-0.1-0.9-0.3c-0.2-0.2-0.3-0.5-0.3-0.9
			v-0.8c0-1.4-0.2-2.5-0.5-3.2s-0.8-1.2-1.3-1.6c-0.6-0.4-1.3-0.6-2.4-0.6h-5.6v6.2c0,0.3-0.1,0.6-0.4,0.9c-0.2,0.2-0.5,0.3-0.9,0.3
			c-0.3,0-0.6-0.1-0.9-0.3c-0.2-0.2-0.3-0.5-0.3-0.9V96.2c0-0.3,0.1-0.6,0.3-0.9s0.5-0.4,0.9-0.4h6.2c2.4,0,4.3,0.5,5.6,1.6
			c1.2,1,1.7,2.3,1.7,3.9c0,1-0.3,2-0.9,2.9c-0.6,0.9-1.5,1.5-2.6,2c1.3,0.3,2.2,1.3,2.8,2.8c0.4,1,0.6,2.1,0.6,3.3V112.6z
			 M329.8,104.1c1.5,0,2.7-0.3,3.6-0.9c0.9-0.6,1.4-1.5,1.4-2.6c0-1.1-0.4-1.9-1.1-2.4c-0.9-0.6-2.2-0.9-4.1-0.9h-4.7v6.8H329.8z"/>
	</g>
</g>
</svg>
