<svg id="Capa_1" data-name="Capa 1" xmlns="http://www.w3.org/2000/svg" xmlns:xlink="http://www.w3.org/1999/xlink" viewBox="0 0 392.87 400.7"><defs><style>.cls-1{fill:#fff;}.cls-2{fill:#383a46;}.cls-3{fill:url(#Degradado_sin_nombre_13);}</style><linearGradient id="Degradado_sin_nombre_13" x1="139.12" y1="275.74" x2="330.95" y2="83.91" gradientUnits="userSpaceOnUse"><stop offset="0" stop-color="#ba2057"/><stop offset="0.81" stop-color="#e26091"/></linearGradient></defs><rect class="cls-1" width="392.87" height="400.7" rx="124.48"/><path class="cls-2" d="M129.26,114.25a20.37,20.37,0,0,0-28.8,0l-51,51a20.36,20.36,0,0,0,0,28.81l25,25a57.11,57.11,0,0,0,80.76,0l39.45-39.45Zm-14.4,91.12a25.7,25.7,0,1,1,25.69-25.7A25.7,25.7,0,0,1,114.86,205.37Z"/><path class="cls-3" d="M341.05,165.83l-8.2-8.21a25.41,25.41,0,1,1-35.94-35.94l-8-8a20,20,0,0,0-28.21,0L222,152.27a10.23,10.23,0,1,1-14.47,14.47l-52.37,52.37a57.06,57.06,0,0,1-79.76.91,1.85,1.85,0,0,0,.29.4l79.52,79.52a55.93,55.93,0,0,0,79.09,0l53.35-53.35a10.23,10.23,0,0,1,14.47-14.47l38.9-38.9A19.36,19.36,0,0,0,341.05,165.83Zm-99.58,30.56a10.24,10.24,0,1,1,10.24-10.24A10.23,10.23,0,0,1,241.47,196.39Zm27.19,27a10.24,10.24,0,1,1,10.24-10.24A10.25,10.25,0,0,1,268.66,223.35Z"/></svg>